<svg width="25" height="18" viewBox="0 0 25 18" fill="none" xmlns="http://www.w3.org/2000/svg">
<g opacity="1">
<rect y="-0.000976562" width="24.64" height="17.58" rx="3" fill="#b2b2b2"/>
<path d="M7 6.18266C7 5.53304 7.16875 4.98018 7.53125 4.58626L8.15625 5.27734C7.4625 6.04445 8.06875 8.42869 10.05 10.6194C12.0312 12.8102 14.1875 13.4805 14.8812 12.7134L15.5063 13.4045C14.3313 14.7037 11.6625 13.7777 9.425 11.3105C7.875 9.58971 7 7.64776 7 6.18266Z" fill="black"/>
<path d="M10.9437 13.9988C10.3562 13.9988 9.85625 13.8122 9.5 13.4114L10.125 12.7203C10.8187 13.4874 12.975 12.8171 14.9563 10.6263C16.9375 8.4356 17.5438 6.05136 16.85 5.28425L17.475 4.59317C18.65 5.89241 17.8125 8.84334 15.5813 11.3174C14.025 13.0313 12.2625 13.9988 10.9437 13.9988Z" fill="black"/>
<path d="M15.7813 10.3292C15.4 9.11978 14.625 7.82745 13.6 6.69407C11.3625 4.21998 8.69375 3.30084 7.51875 4.59317C7.4375 4.68992 7.5125 4.91798 7.68125 5.10457C7.85 5.29116 8.0625 5.37409 8.14375 5.28425C8.8375 4.51715 10.9938 5.1875 12.975 7.37824C13.9125 8.41487 14.6125 9.57589 14.95 10.6471C15.2438 11.5869 15.2188 12.3471 14.875 12.7272C14.7938 12.8171 14.8625 13.0451 15.0375 13.2386C15.2125 13.4321 15.4188 13.5082 15.5 13.4183C16.1 12.748 16.2 11.6491 15.7813 10.3292Z" fill="black"/>
<path d="M17.4688 4.59317C16.8688 3.92973 15.875 3.81915 14.6813 4.27527C13.5875 4.69683 12.4188 5.55378 11.3938 6.68716C9.15625 9.16124 8.325 12.1122 9.5 13.4114C9.58125 13.5013 9.79375 13.4252 9.9625 13.2317C10.1313 13.0382 10.2062 12.8102 10.125 12.7203C9.43125 11.9532 10.0375 9.56898 12.0188 7.37824C12.9563 6.34161 14.0063 5.5676 14.9688 5.19441C15.8188 4.8696 16.5063 4.89725 16.85 5.27734C16.9313 5.36718 17.1375 5.29116 17.3125 5.09766C17.4875 4.90416 17.5563 4.68992 17.4688 4.59317Z" fill="black"/>
</g>
</svg>
