<svg width="30" height="28" viewBox="0 0 30 28" fill="none" xmlns="http://www.w3.org/2000/svg">
<path d="M26.8545 0H1.57228C0.723247 0 0 0.677896 0 1.50316V4.18526C0 5.01052 0.723247 5.68842 1.57228 5.68842H26.8545C27.7349 5.68842 28.4267 5.01052 28.4582 4.18526V1.53263C28.4582 0.677894 27.7349 0 26.8545 0ZM26.8545 14.8842H1.57228C1.16348 14.8842 0.754692 15.0316 0.471683 15.3263C0.157228 15.6211 0 15.9747 0 16.3874V19.0695C0 19.8947 0.723247 20.5726 1.57228 20.5726H26.8545C27.7349 20.5726 28.4267 19.9242 28.4582 19.0695V16.3874C28.4267 15.5326 27.7349 14.8842 26.8545 14.8842ZM15.8171 22.3116H1.57228C1.16348 22.3116 0.754692 22.4589 0.471683 22.7537C0.188673 23.0484 0 23.4021 0 23.8147V26.4968C0 27.3221 0.723247 28 1.57228 28H15.7856C16.6661 28 17.3579 27.3221 17.3579 26.5263V23.8442C17.3894 22.96 16.6976 22.2821 15.8171 22.3116ZM28.4582 7.42737H1.57228C1.16348 7.42737 0.754692 7.57474 0.471683 7.86947C0.188673 8.16421 0 8.51789 0 8.93053V11.6126C0 12.4379 0.723247 13.1158 1.57228 13.1158H28.4267C29.3072 13.1158 29.999 12.4379 29.999 11.6126V8.93053C30.0305 8.10526 29.3072 7.45684 28.4582 7.42737Z" fill="#B5B5B5"/>
</svg>
